<svg width="19" height="24" viewBox="0 0 19 24" fill="none" xmlns="http://www.w3.org/2000/svg">
<path d="M17.0855 20.8339C17.0855 20.8339 16.8501 20.6687 16.4671 20.45C16.4591 20.4376 16.4471 20.4252 16.4391 20.4128C16.4391 20.4128 15.7928 19.1042 15.1464 19.0588C15.1225 19.323 15.4058 19.6574 15.4058 19.6574L15.7289 20.066C15.5374 19.9752 15.3339 19.8885 15.1185 19.806L14.919 19.5583L14.532 19.0712L14.3365 18.8277H14.3325C13.9255 18.7905 13.7619 18.9928 13.6622 19.4014L13.4906 19.0795C13.4906 18.6997 13.8058 18.4025 14.1729 18.4396L12.8084 16.4128C12.8084 16.4128 12.9839 16.9907 12.8523 17.5274C12.8283 17.5274 12.8283 17.5274 12.8044 17.5274C12.6767 17.1393 12.4174 16.582 11.8787 15.9628C12.17 15.5624 12.4533 15.1249 12.6927 14.646C12.7884 14.452 12.8762 14.2621 12.952 14.0764L13.2592 14.5552C13.3829 15.2157 13.7859 16.4004 15.0626 17.3622C15.0626 17.3622 14.0452 17.1022 13.9175 17.0114C14.2168 17.5274 15.0028 18.258 15.5254 18.5098C15.9165 18.6997 16.3753 18.8607 16.6945 19.1744L16.8102 19.6615C16.7264 19.5583 16.5269 19.2033 16.1159 19.0671C16.2197 19.5955 16.9937 20.4334 16.9937 20.4334L17.0855 20.8339ZM12.8562 10.258C12.9281 10.8896 12.9959 12.5325 12.0982 14.324C11.2563 15.9959 9.83195 17.2219 9.32125 17.6306C8.81055 17.226 7.38617 16 6.54432 14.324C5.65059 12.5449 5.71443 10.8937 5.78625 10.258H12.8562ZM5.83014 9.5645V7.54592L5.8461 7.56656L6.9832 9.11043C6.97522 9.26316 6.96325 9.41176 6.9433 9.5645H5.83014ZM11.6593 9.12281L12.8084 7.55831V9.5645H11.6992C11.6792 9.41589 11.6673 9.27142 11.6593 9.12281ZM11.2284 18.5965L11.1167 18.4107C11.0808 18.3488 11.0409 18.2869 11.009 18.2208C10.9451 18.0888 10.8773 17.9608 10.8174 17.8287L10.6539 17.42C10.6499 17.4076 10.6419 17.3953 10.6379 17.3787C10.8334 17.1889 11.0409 16.9742 11.2523 16.7348C11.5396 17.3251 11.9785 17.8741 12.6328 18.3117C12.6887 18.3406 12.7485 18.3653 12.8044 18.3901V19.356C12.4972 19.3725 12.2059 19.4056 11.9306 19.451L11.8907 19.4138C11.8388 19.3643 11.791 19.3148 11.7431 19.2652C11.6912 19.2157 11.6473 19.162 11.6034 19.1084C11.5596 19.0547 11.5117 19.001 11.4678 18.9432L11.3441 18.7699C11.3042 18.7162 11.2603 18.6584 11.2284 18.5965ZM11.2603 19.5955C10.594 19.7688 10.0514 20.0041 9.63645 20.2353L9.54468 18.324C9.64443 18.2497 9.94366 18.0227 10.3347 17.6677L10.4264 17.9732C10.4783 18.1177 10.5342 18.2621 10.59 18.4107C10.614 18.485 10.6499 18.5552 10.6858 18.6254L10.7855 18.84C10.8174 18.9102 10.8573 18.9804 10.8972 19.0464L11.0169 19.2528C11.0608 19.3189 11.1087 19.3849 11.1526 19.451C11.1885 19.5005 11.2244 19.5501 11.2603 19.5955ZM9.06191 18.2952L8.97014 20.2353C8.5552 20.0083 8.01258 19.7688 7.34627 19.5955C7.38218 19.5459 7.41809 19.4964 7.454 19.4469C7.49789 19.3808 7.54577 19.3148 7.58965 19.2487L7.70935 19.0423C7.74925 18.9721 7.78915 18.9061 7.82107 18.8359L7.92081 18.6213C7.95273 18.5511 7.98864 18.4809 8.01657 18.4066C8.07243 18.2621 8.12829 18.1176 8.18015 17.969L8.2799 17.6388C8.64298 17.9773 8.93024 18.2002 9.06191 18.2952ZM7.97268 17.3498C7.9647 17.3705 7.95672 17.3953 7.94874 17.4159L7.78516 17.8246C7.72531 17.9567 7.65749 18.0888 7.59365 18.2167C7.56572 18.2828 7.52582 18.3447 7.48592 18.4066L7.37421 18.5924C7.3383 18.6543 7.29441 18.7121 7.25451 18.7699L7.13082 18.9432C7.08694 19.001 7.03906 19.0506 6.99517 19.1084C6.95128 19.162 6.90739 19.2198 6.85552 19.2652C6.80765 19.3148 6.75977 19.3643 6.7079 19.4138L6.668 19.451C6.3927 19.4056 6.10145 19.3725 5.79423 19.356V18.3901C5.85408 18.3653 5.90993 18.3364 5.96579 18.3117C6.62811 17.8658 7.07097 17.3044 7.35824 16.7059C7.5697 16.9453 7.77718 17.16 7.97268 17.3498ZM13.5944 11.8266V6.49329L14.4961 5.26729L14.7514 4.94943V14.8524V15.4138L14.544 15.0918C13.9215 14.1218 13.5944 12.9907 13.5944 11.8266ZM15.5374 14.8483V4.33024C16.0561 4.24355 16.491 3.88855 16.6985 3.40145V17.87V18.4314L16.491 18.1094C15.8646 17.1434 15.5374 16.0165 15.5374 14.8483ZM15.9404 1.23426C15.9763 1.27967 16.0082 1.33333 16.0361 1.39113C16.0641 1.44892 16.084 1.51084 16.096 1.58101C16.1159 1.55212 16.1359 1.52735 16.1558 1.49845C16.1598 1.49433 16.1678 1.48607 16.1718 1.48194C16.2436 1.39938 16.3234 1.32095 16.4152 1.25077C16.499 1.18885 16.5868 1.13106 16.6945 1.08978C16.7104 1.08153 16.7304 1.07327 16.7463 1.06915C16.7344 1.13932 16.7144 1.20537 16.6945 1.26316C16.6745 1.32095 16.6466 1.37874 16.6187 1.43241C16.5628 1.5356 16.499 1.63055 16.4272 1.71724C16.4232 1.72136 16.4192 1.72549 16.4152 1.72962C16.3952 1.75439 16.3673 1.77915 16.3474 1.80392C16.4072 1.80805 16.4671 1.81631 16.5229 1.83282C16.5349 1.83695 16.5508 1.84107 16.5628 1.84933C16.6107 1.86584 16.6546 1.89061 16.6985 1.91538C16.8022 1.98555 16.894 2.07637 16.9458 2.20434C16.8142 2.20021 16.7064 2.18782 16.6067 2.17544C16.507 2.16306 16.4152 2.15893 16.3274 2.1548C16.3234 2.1548 16.3194 2.1548 16.3114 2.1548C16.1838 1.93189 15.9923 1.75026 15.7648 1.64706C15.7489 1.56037 15.7329 1.46956 15.709 1.36636C15.701 1.32508 15.689 1.2838 15.6811 1.24252C15.6651 1.17647 15.6491 1.1063 15.6372 1.02374C15.7608 1.05676 15.8606 1.13519 15.9404 1.23426ZM15.2821 1.88648C15.7569 1.88648 16.1399 2.28277 16.1399 2.77399C16.1399 3.26522 15.7569 3.6615 15.2821 3.6615C15.2501 3.6615 15.2142 3.65738 15.1823 3.65325L14.4681 3.04644C14.4402 2.95975 14.4243 2.86894 14.4243 2.76987C14.4243 2.28277 14.8073 1.88648 15.2821 1.88648ZM14.2008 3.35604L15.0068 4.04128L14.7235 4.40041L13.9175 3.71517L14.2008 3.35604ZM14.2248 4.64396L10.606 9.5645H10.0434L13.8776 4.35088L14.2248 4.64396ZM6.77972 0L7.62157 1.18886H8.41555L9.31327 0L10.1471 1.18886H10.9411L11.8668 0V2.23323L6.77573 2.19195V0H6.77972ZM6.40866 4.80495C6.40866 4.52012 6.5922 4.26832 6.85952 4.18576L7.56572 3.97523C7.56572 3.83488 7.56971 3.83076 7.70536 3.80186L9.32524 3.36842L9.5367 3.35604C10.4863 3.31063 11.4319 4.00413 11.6194 4.94943C11.5077 4.80496 11.38 4.67699 11.2364 4.57379C11.0249 4.4128 10.7815 4.3096 10.5381 4.25593C11.8987 4.96594 11.3481 6.8937 11.3481 6.8937C11.3481 6.86481 11.3481 6.83591 11.3481 6.80289C11.3281 6.4066 11.2563 5.40351 10.6299 4.85449C11.0528 5.65945 11.0728 6.50155 10.7975 7.36842C10.3546 8.77606 9.24145 9.51909 9.24145 9.51909C9.24145 9.51909 10.8214 7.13313 10.1392 5.50671C10.1631 5.72549 10.3147 6.85656 9.62846 7.7936C9.04994 8.58205 8.42752 8.66873 8.42752 8.66873C8.42752 8.66873 9.41701 7.66564 9.37711 6.10527C9.01403 7.68628 7.78516 7.82663 7.78516 7.82663C8.22005 7.53354 8.47141 6.96388 8.53126 6.53045C8.3956 6.70795 8.13228 7.00516 7.58168 7.15377C7.96869 6.77812 8.10036 6.2869 8.07243 5.4902C8.07243 5.4902 6.73982 4.61507 6.40866 5.53973V4.80495ZM8.55919 9.5645H7.99662L4.37783 4.64396L4.72495 4.35088L8.55919 9.5645ZM5.04414 6.57585V11.8225C5.04414 12.9866 4.71298 14.1176 4.09056 15.0877L3.88309 15.4097V14.8483V5.14345L5.04414 6.57585ZM4.39379 3.3643L4.40177 3.35604L4.68505 3.71517L3.8791 4.40041L3.80729 4.3096L3.79931 4.31786L3.51603 3.95872L4.32198 3.27348L4.39379 3.3643ZM2.8617 1.27967C2.96942 1.18886 3.10108 1.14345 3.23275 1.14345C3.30058 1.14345 3.36441 1.15583 3.43224 1.1806C3.62774 1.25077 3.76739 1.42002 3.81128 1.62642L4.02274 2.9226L3.75143 3.15377L2.54251 1.55625L2.8617 1.27967ZM2.13155 3.05057C1.94004 2.96801 1.80837 2.79051 1.78045 2.57585C1.75252 2.3612 1.82833 2.1548 1.99191 2.01858L2.26721 1.78328L3.47613 3.38081L3.2527 3.5707L2.13155 3.05057ZM3.10109 4.09082V14.8483C3.10109 16.0124 2.76993 17.1434 2.14751 18.1135L1.94004 18.4355V17.8741V3.6161C1.94403 3.6161 1.94802 3.62023 1.95201 3.62435L2.97341 4.02064L3.10109 4.09082ZM1.98792 0.850363C2.14352 0.850363 2.26721 0.978329 2.26721 1.13932C2.26721 1.30031 2.14352 1.42828 1.98792 1.42828C1.83232 1.42828 1.70863 1.30031 1.70863 1.13932C1.70464 0.982457 1.83232 0.850363 1.98792 0.850363ZM1.61287 20.4293C1.61287 20.4293 2.3869 19.5913 2.49064 19.063C2.07969 19.2033 1.88019 19.5542 1.79641 19.6574L1.91211 19.1703C2.2313 18.8566 2.69013 18.6956 3.08113 18.5057C3.6038 18.2539 4.3898 17.5232 4.68904 17.0072C4.56137 17.098 3.54396 17.3581 3.54396 17.3581C4.82071 16.3922 5.22368 15.2116 5.34736 14.5511L5.67453 14.0392C5.75433 14.2374 5.8461 14.4396 5.94584 14.6419C6.18124 15.1125 6.45654 15.5459 6.74381 15.9381C6.19321 16.5655 5.92589 17.1311 5.79822 17.5232C5.77428 17.5232 5.77428 17.5232 5.75034 17.5232C5.61868 16.9866 5.79423 16.4087 5.79423 16.4087L4.4297 18.4355C4.79677 18.3983 5.11197 18.6956 5.11197 19.0753L4.9404 19.3973C4.83667 18.9887 4.67707 18.7864 4.27011 18.8235H4.26612L4.07062 19.0671L3.6836 19.5542L3.48411 19.8019C3.26866 19.8844 3.06518 19.9752 2.87366 20.0619L3.19684 19.6533C3.19684 19.6533 3.48012 19.3189 3.45618 19.0547C2.80983 19.1001 2.16347 20.4087 2.16347 20.4087C2.1515 20.4211 2.14352 20.4334 2.13554 20.4458C1.75252 20.6646 1.51712 20.8297 1.51712 20.8297L1.61287 20.4293ZM0.000976562 5.95253C0.000976562 4.62332 0.415922 3.32301 1.16202 2.25387V17.8741C1.16202 19.0382 0.834853 20.1651 0.212438 21.1352L0.00496726 21.4407V5.95253H0.000976562ZM18.6375 21.4407L18.4301 21.1352C17.8076 20.1651 17.4805 19.0382 17.4805 17.8741V2.34881C18.2186 3.62436 18.6415 5.42828 18.6415 6.76987V21.4407H18.6375ZM9.32125 21.5562C8.4355 20.644 4.7848 19.4551 1.63282 21.6017C2.60236 21.2301 3.89506 20.6151 5.97776 20.8339C8.20409 21.0691 9.31726 22.2374 9.31726 22.2374L9.32125 22.2332L9.32524 22.2374C9.32524 22.2374 10.4384 21.0691 12.6647 20.8339C14.7434 20.6151 16.0401 21.2301 17.0097 21.6017C13.8577 19.4551 10.203 20.644 9.32125 21.5562ZM18.3223 22.4685L11.6713 22.031L11.0648 21.9897C11.0409 22.0475 11.0169 22.1011 10.989 22.1548C10.6698 22.7781 10.0394 23.2033 9.31726 23.2033C8.59509 23.2033 7.9647 22.7781 7.64551 22.1548C7.61758 22.1011 7.59365 22.0433 7.56971 21.9897L6.96325 22.031L0.312184 22.4685L0.000976562 22.6708H7.2186C7.6495 23.4675 8.42752 24 9.31726 24C10.207 24 10.985 23.4675 11.4159 22.6708H18.6335L18.3223 22.4685Z" fill="white"/>
</svg>
