<svg xmlns="http://www.w3.org/2000/svg" width="23" height="24" viewBox="0 0 23 24" fill="none">
  <g clip-path="url(#clip0_4531_206)">
    <path d="M5.35398 8.37402H0.73669C0.531768 8.37402 0.365723 8.54014 0.365723 8.74499V23.5784C0.365723 23.7833 0.531768 23.9493 0.73669 23.9493H5.35398C5.5589 23.9493 5.72495 23.7833 5.72495 23.5784V8.74499C5.72495 8.54014 5.5589 8.37402 5.35398 8.37402Z" fill="white"/>
    <path d="M3.04683 1C1.36679 1 0 2.36531 0 4.04349C0 5.72242 1.36679 7.08825 3.04683 7.08825C4.72553 7.08825 6.09122 5.72234 6.09122 4.04349C6.09129 2.36531 4.72553 1 3.04683 1Z" fill="white"/>
    <path d="M17.0981 8.00537C15.2436 8.00537 13.8727 8.80258 13.0412 9.70841V8.74501C13.0412 8.54016 12.8752 8.37404 12.6703 8.37404H8.24841C8.04349 8.37404 7.87744 8.54016 7.87744 8.74501V23.5784C7.87744 23.7833 8.04349 23.9493 8.24841 23.9493H12.8556C13.0605 23.9493 13.2266 23.7833 13.2266 23.5784V16.2393C13.2266 13.7662 13.8983 12.8027 15.6223 12.8027C17.4998 12.8027 17.649 14.3473 17.649 16.3665V23.5784C17.649 23.7834 17.8151 23.9494 18.02 23.9494H22.6289C22.8338 23.9494 22.9999 23.7834 22.9999 23.5784V15.4421C22.9999 11.7647 22.2987 8.00537 17.0981 8.00537Z" fill="white"/>
  </g>
  <defs>
    <clipPath id="clip0_4531_206">
      <rect width="23" height="23.4004" fill="white" transform="translate(0.000244141 0.526367)"/>
    </clipPath>
  </defs>
</svg>